<?xml version="1.0" encoding="utf-8"?>
<!-- Generator: Adobe Illustrator 19.1.0, SVG Export Plug-In . SVG Version: 6.00 Build 0)  -->
<svg version="1.1"
	 id="svg4520" xmlns:dc="http://purl.org/dc/elements/1.1/" xmlns:inkscape="http://www.inkscape.org/namespaces/inkscape" xmlns:rdf="http://www.w3.org/1999/02/22-rdf-syntax-ns#" xmlns:svg="http://www.w3.org/2000/svg" xmlns:sodipodi="http://sodipodi.sourceforge.net/DTD/sodipodi-0.dtd" xmlns:cc="http://creativecommons.org/ns#" sodipodi:docname="qfma-helix-logo.svg" inkscape:version="0.48.2 r9819"
	 xmlns="http://www.w3.org/2000/svg" xmlns:xlink="http://www.w3.org/1999/xlink" x="0px" y="0px" viewBox="-209 333 176.9 176.9"
	 enable-background="new -209 333 176.9 176.9" xml:space="preserve">
<sodipodi:namedview  id="base" fit-margin-top="0" pagecolor="#ffffff" inkscape:cy="166.88324" showgrid="false" borderopacity="1.0" bordercolor="#666666" inkscape:cx="-45.986387" inkscape:zoom="1.4142136" fit-margin-left="0" inkscape:window-maximized="1" inkscape:window-y="0" inkscape:window-x="1920" inkscape:window-height="1396" inkscape:window-width="2556" fit-margin-bottom="0" inkscape:current-layer="g4511" inkscape:pageshadow="2" inkscape:document-units="px" inkscape:pageopacity="0.0" fit-margin-right="0">
	</sodipodi:namedview>
<g id="layer1" transform="translate(-173.44013,-213.92097)" inkscape:label="Layer 1" inkscape:groupmode="layer">
	<g id="g4511" transform="translate(-2633.9727,1797.4866)">
		<g id="g4111-5-0-6-3" transform="matrix(1,0,0,-1,2022.5693,-2580.3714)">
			<path id="rect3901-8-7-15-9-4-6" inkscape:connector-curvature="0" sodipodi:nodetypes="ccccc" fill="#8CC152" d="M531.9-1657.1
				v62.4l-11.6-11.7v-50.7L531.9-1657.1L531.9-1657.1z"/>
			<path id="rect3901-8-7-3-2-0-8-9" inkscape:connector-curvature="0" sodipodi:nodetypes="ccccc" fill="#F6BB42" d="M531.9-1659
				v-62.4l-11.6,11.7v50.7L531.9-1659L531.9-1659z"/>
		</g>
		<g id="g4115-8-2-7-1" transform="matrix(1,0,0,-1,2024.8697,-2580.3714)">
			<path id="rect3901-8-5-1-3-1" inkscape:connector-curvature="0" sodipodi:nodetypes="ccccc" fill="#4A89DC" d="M561.5-1657.1
				v62.4l11.6-11.7v-50.7L561.5-1657.1L561.5-1657.1z"/>
			<path id="rect3901-8-7-3-5-20-6-4-5" inkscape:connector-curvature="0" sodipodi:nodetypes="ccccc" fill="#DA4453" d="
				M561.5-1659v-62.4l11.6,11.7v50.7L561.5-1659L561.5-1659z"/>
		</g>
		
			<rect id="rect3108-3-3-9-4" x="2513.2" y="-979.5" transform="matrix(-0.7071 0.7071 -0.7071 -0.7071 3735.7952 -3392.012)" fill="none" stroke="#434A54" stroke-width="10" width="114.4" height="114.4"/>
	</g>
</g>
</svg>
